<svg width="18" height="19" viewBox="0 0 18 19" fill="none" xmlns="http://www.w3.org/2000/svg">
<path d="M2.68359 3.43359C4.43099 1.6862 6.53646 0.8125 9 0.8125C11.4635 0.8125 13.569 1.6862 15.3164 3.43359C17.0638 5.18099 17.9375 7.28646 17.9375 9.75C17.9375 12.2135 17.0638 14.319 15.3164 16.0664C13.569 17.8138 11.4635 18.6875 9 18.6875C6.53646 18.6875 4.43099 17.8138 2.68359 16.0664C0.936198 14.319 0.0625 12.2135 0.0625 9.75C0.0625 7.28646 0.936198 5.18099 2.68359 3.43359ZM14.3281 4.42188C12.8672 2.93229 11.0911 2.1875 9 2.1875C6.90885 2.1875 5.11849 2.93229 3.62891 4.42188C2.16797 5.88281 1.4375 7.65885 1.4375 9.75C1.4375 11.8411 2.16797 13.6315 3.62891 15.1211C5.11849 16.582 6.90885 17.3125 9 17.3125C11.0911 17.3125 12.8672 16.582 14.3281 15.1211C15.8177 13.6315 16.5625 11.8411 16.5625 9.75C16.5625 7.65885 15.8177 5.88281 14.3281 4.42188ZM8.3125 5.625H9.6875V9.0625H13.125V10.4375H9.6875V13.875H8.3125V10.4375H4.875V9.0625H8.3125V5.625Z" fill="#778CA2"/>
</svg>
