<svg width="18" height="17" viewBox="0 0 18 17" fill="none" xmlns="http://www.w3.org/2000/svg">
<path d="M7.625 0.8125H10.375C10.7474 0.8125 11.0625 0.955729 11.3203 1.24219C11.6068 1.5 11.75 1.8151 11.75 2.1875V2.875H13.8125V2.1875H15.1875V2.875H16.5625C16.9349 2.875 17.25 3.01823 17.5078 3.30469C17.7943 3.5625 17.9375 3.8776 17.9375 4.25V15.25C17.9375 15.6224 17.7943 15.9518 17.5078 16.2383C17.25 16.4961 16.9349 16.625 16.5625 16.625H1.4375C1.0651 16.625 0.735677 16.4961 0.449219 16.2383C0.191406 15.9518 0.0625 15.6224 0.0625 15.25V4.25C0.0625 3.8776 0.191406 3.5625 0.449219 3.30469C0.735677 3.01823 1.0651 2.875 1.4375 2.875H2.8125V2.1875H4.1875V2.875H6.25V2.1875C6.25 1.8151 6.37891 1.5 6.63672 1.24219C6.92318 0.955729 7.2526 0.8125 7.625 0.8125ZM7.625 2.1875V2.875H10.375V2.1875H7.625ZM1.4375 4.25V15.25H2.8125V4.9375H4.1875V15.25H13.8125V4.9375H15.1875V15.25H16.5625V4.25H1.4375Z" fill="#778CA2"/>
</svg>
