<svg width="19" height="20" viewBox="0 0 19 20" fill="none" xmlns="http://www.w3.org/2000/svg">
<path fill-rule="evenodd" clip-rule="evenodd" d="M0.589111 2.22256C0.410592 2.22256 0.267778 2.169 0.160667 2.06189C0.053555 1.95478 0 1.81196 0 1.63344V0.615889C0 0.437369 0.053555 0.290093 0.160667 0.174056C0.267778 0.0580179 0.410592 0 0.589111 0H1.60667C1.78519 0 1.93246 0.0580179 2.0485 0.174056C2.16454 0.290093 2.22256 0.437369 2.22256 0.615889V1.63344C2.22256 1.81196 2.16454 1.95478 2.0485 2.06189C1.93246 2.169 1.78519 2.22256 1.60667 2.22256H0.589111ZM0.883667 19.0122C0.705147 19.0122 0.562334 18.9587 0.455222 18.8516C0.348111 18.7444 0.294556 18.6016 0.294556 18.4231V5.67689C0.294556 5.49837 0.348111 5.35556 0.455222 5.24844C0.562334 5.14133 0.705147 5.08778 0.883667 5.08778H1.33889C1.51741 5.08778 1.66022 5.14133 1.76733 5.24844C1.87444 5.35556 1.928 5.49837 1.928 5.67689V18.4231C1.928 18.6016 1.87444 18.7444 1.76733 18.8516C1.66022 18.9587 1.51741 19.0122 1.33889 19.0122H0.883667ZM12.2374 19.28C10.3808 19.28 8.93932 18.7132 7.91283 17.5796C6.88635 16.446 6.34633 14.9777 6.29278 13.1747L6.266 12.05L6.29278 10.9253C6.34633 9.12229 6.88635 7.65399 7.91283 6.52039C8.93932 5.38679 10.3808 4.82 12.2374 4.82C14.094 4.82 15.5356 5.38679 16.5621 6.52039C17.5885 7.65399 18.1286 9.12229 18.1821 10.9253C18.2 11.1039 18.2089 11.4787 18.2089 12.05C18.2089 12.6213 18.2 12.9961 18.1821 13.1747C18.1286 14.9777 17.5885 16.446 16.5621 17.5796C15.5356 18.7132 14.094 19.28 12.2374 19.28ZM12.2374 17.7269C13.5049 17.7269 14.5269 17.3208 15.3035 16.5085C16.0801 15.6962 16.4951 14.5403 16.5487 13.0408C16.5665 12.8623 16.5754 12.532 16.5754 12.05C16.5754 11.568 16.5665 11.2377 16.5487 11.0592C16.4951 9.55966 16.0801 8.40376 15.3035 7.5915C14.5269 6.77924 13.5049 6.37311 12.2374 6.37311C10.97 6.37311 9.94795 6.77924 9.17139 7.5915C8.39483 8.40376 7.97978 9.55966 7.92622 11.0592L7.89944 12.05L7.92622 13.0408C7.97978 14.5403 8.39483 15.6962 9.17139 16.5085C9.94795 17.3208 10.97 17.7269 12.2374 17.7269Z" fill="#4D7CFE"/>
</svg>
