<svg width="18" height="19" viewBox="0 0 18 19" fill="none" xmlns="http://www.w3.org/2000/svg">
<path d="M6.20703 2.83203C7.55339 1.48568 9.17188 0.8125 11.0625 0.8125C12.9531 0.8125 14.5716 1.48568 15.918 2.83203C17.2643 4.17839 17.9375 5.79688 17.9375 7.6875C17.9375 9.57812 17.2643 11.1966 15.918 12.543C14.5716 13.8893 12.9531 14.5625 11.0625 14.5625C9.42969 14.5625 7.98307 14.0469 6.72266 13.0156L1.26562 18.5156L0.234375 17.4844L5.73438 12.0273C4.70312 10.7669 4.1875 9.32031 4.1875 7.6875C4.1875 5.79688 4.86068 4.17839 6.20703 2.83203ZM14.9297 3.82031C13.8698 2.73177 12.5807 2.1875 11.0625 2.1875C9.54427 2.1875 8.24089 2.73177 7.15234 3.82031C6.09245 4.88021 5.5625 6.16927 5.5625 7.6875C5.5625 9.20573 6.09245 10.5091 7.15234 11.5977C8.24089 12.6576 9.54427 13.1875 11.0625 13.1875C12.5807 13.1875 13.8698 12.6576 14.9297 11.5977C16.0182 10.5091 16.5625 9.20573 16.5625 7.6875C16.5625 6.16927 16.0182 4.88021 14.9297 3.82031Z" fill="#778CA2"/>
</svg>
