<svg width="17" height="19" viewBox="0 0 17 19" fill="none" xmlns="http://www.w3.org/2000/svg">
<path d="M7.71094 1.62891C8.25521 1.08464 8.91406 0.8125 9.6875 0.8125C10.4609 0.8125 11.1055 1.08464 11.6211 1.62891C12.1654 2.14453 12.4375 2.78906 12.4375 3.5625H15.875H16.5625V4.25V7.6875V8.375H15.875H15.1875C14.7865 8.375 14.457 8.50391 14.1992 8.76172C13.9414 9.01953 13.8125 9.34896 13.8125 9.75C13.8125 10.151 13.9414 10.4805 14.1992 10.7383C14.457 10.9961 14.7865 11.125 15.1875 11.125H15.875H16.5625V11.8125V15.25V15.9375H15.875H12.4375C12.4375 16.7109 12.1654 17.3698 11.6211 17.9141C11.1055 18.4297 10.4609 18.6875 9.6875 18.6875C8.91406 18.6875 8.25521 18.4297 7.71094 17.9141C7.19531 17.3698 6.9375 16.7109 6.9375 15.9375H3.5H2.8125V15.25V12.5C2.03906 12.5 1.38021 12.2422 0.835938 11.7266C0.320312 11.1823 0.0625 10.5234 0.0625 9.75C0.0625 8.97656 0.320312 8.33203 0.835938 7.81641C1.38021 7.27214 2.03906 7 2.8125 7V4.25V3.5625H3.5H6.9375C6.9375 2.78906 7.19531 2.14453 7.71094 1.62891ZM10.6758 2.57422C10.418 2.31641 10.0885 2.1875 9.6875 2.1875C9.28646 2.1875 8.95703 2.31641 8.69922 2.57422C8.44141 2.83203 8.3125 3.16146 8.3125 3.5625V4.25V4.9375H7.625H4.1875V7.6875V8.375H3.5H2.8125C2.41146 8.375 2.08203 8.50391 1.82422 8.76172C1.56641 9.01953 1.4375 9.34896 1.4375 9.75C1.4375 10.151 1.56641 10.4805 1.82422 10.7383C2.08203 10.9961 2.41146 11.125 2.8125 11.125H3.5H4.1875V11.8125V14.5625H7.625H8.3125V15.25V15.9375C8.3125 16.3385 8.44141 16.668 8.69922 16.9258C8.95703 17.1836 9.28646 17.3125 9.6875 17.3125C10.0885 17.3125 10.418 17.1836 10.6758 16.9258C10.9336 16.668 11.0625 16.3385 11.0625 15.9375V15.25V14.5625H11.75H15.1875V12.5C14.4141 12.5 13.7552 12.2422 13.2109 11.7266C12.6953 11.1823 12.4375 10.5234 12.4375 9.75C12.4375 8.97656 12.6953 8.33203 13.2109 7.81641C13.7552 7.27214 14.4141 7 15.1875 7V4.9375H11.75H11.0625V4.25V3.5625C11.0625 3.16146 10.9336 2.83203 10.6758 2.57422Z" fill="#778CA2"/>
</svg>
